/*
  IERG4230 IoT Testing Program
  Buzzer module
  Matter Needing attention:
  On Boot/Reset/wakeup,
  GPIO15(D8) keep LOW and GPIO2(D4)keep HIGH
  GPIO0(D3) HIGH = Run mode / LOW = Flash mode
  On Board LEDs:
  GPIO16(D0)
  GPIO2(D4)

  Connections:
  Buzzer       ESP8266-12E
  ---------    ---------
  VCC          3.3V
  I/O          GPIO 14(D5)
  GND          GND
*/
#include "Buzzer.h"

Buzzer buzzer(14, 16); // (Buzzer pin,LED pin)

void setup()
{
  Serial.begin(115200);
  Serial.println();
  Serial.println("ESP8266-12E/F Buzzer testing program - Starwar");
  Serial.println("Build-in LED at GPIO-16(D0)");
  Serial.println("Buzzer pin at GPIO-14(D5)");
}

void loop() {
  buzzer.begin(10);

  buzzer.sound(NOTE_A3, 500);
  buzzer.sound(NOTE_A3, 500);
  buzzer.sound(NOTE_A3, 500);
  buzzer.sound(NOTE_F3, 375);
  buzzer.sound(NOTE_C4, 125);

  buzzer.sound(NOTE_A3, 500);
  buzzer.sound(NOTE_F3, 375);
  buzzer.sound(NOTE_C4, 125);
  buzzer.sound(NOTE_A3, 1000);

  buzzer.sound(NOTE_E4, 500);
  buzzer.sound(NOTE_E4, 500);
  buzzer.sound(NOTE_E4, 500);
  buzzer.sound(NOTE_F4, 375);
  buzzer.sound(NOTE_C4, 125);

  buzzer.sound(NOTE_GS3, 500);
  buzzer.sound(NOTE_F3, 375);
  buzzer.sound(NOTE_C4, 125);
  buzzer.sound(NOTE_A3, 1000);

  buzzer.sound(NOTE_A4, 500);
  buzzer.sound(NOTE_A3, 375);
  buzzer.sound(NOTE_A3, 125);
  buzzer.sound(NOTE_A4, 500);
  buzzer.sound(NOTE_GS4, 375);
  buzzer.sound(NOTE_G4, 125);

  buzzer.sound(NOTE_FS4, 125);
  buzzer.sound(NOTE_E4, 125);
  buzzer.sound(NOTE_F4, 250);
  buzzer.sound(0, 250);
  buzzer.sound(NOTE_AS3, 250);
  buzzer.sound(NOTE_DS4, 500);
  buzzer.sound(NOTE_D4, 375);
  buzzer.sound(NOTE_CS4, 125);

  buzzer.sound(NOTE_C4, 125);
  buzzer.sound(NOTE_B3, 125);
  buzzer.sound(NOTE_C4, 250);
  buzzer.sound(0, 250);
  buzzer.sound(NOTE_F3, 250);
  buzzer.sound(NOTE_GS3, 500);
  buzzer.sound(NOTE_F3, 375);
  buzzer.sound(NOTE_A3, 125);

  buzzer.sound(NOTE_C4, 500);
  buzzer.sound(NOTE_A3, 375);
  buzzer.sound(NOTE_C4, 125);
  buzzer.sound(NOTE_E4, 1000);

  buzzer.sound(NOTE_A4, 500);
  buzzer.sound(NOTE_A3, 375);
  buzzer.sound(NOTE_A3, 125);
  buzzer.sound(NOTE_A4, 500);
  buzzer.sound(NOTE_GS4, 375);
  buzzer.sound(NOTE_G4, 125);

  buzzer.sound(NOTE_FS4, 125);
  buzzer.sound(NOTE_E4, 125);
  buzzer.sound(NOTE_F4, 250);
  buzzer.sound(0, 250);
  buzzer.sound(NOTE_AS3, 250);
  buzzer.sound(NOTE_DS4, 500);
  buzzer.sound(NOTE_D4, 375);
  buzzer.sound(NOTE_CS4, 125);

  buzzer.sound(NOTE_C4, 125);
  buzzer.sound(NOTE_B3, 125);
  buzzer.sound(NOTE_C4, 250);
  buzzer.sound(0, 250);
  buzzer.sound(NOTE_F3, 250);
  buzzer.sound(NOTE_GS3, 500);
  buzzer.sound(NOTE_F3, 375);
  buzzer.sound(NOTE_C4, 125);

  buzzer.sound(NOTE_A3, 500);
  buzzer.sound(NOTE_F3, 375);
  buzzer.sound(NOTE_C4, 125);
  buzzer.sound(NOTE_A3, 1000);

  buzzer.end(2000);
}
